<?xml version="1.0" standalone="no"?>
<!DOCTYPE svg PUBLIC "-//W3C//DTD SVG 20010904//EN"
 "http://www.w3.org/TR/2001/REC-SVG-20010904/DTD/svg10.dtd">
<svg version="1.0" xmlns="http://www.w3.org/2000/svg"
 width="512.000000pt" height="512.000000pt" viewBox="0 0 512.000000 512.000000"
 preserveAspectRatio="xMidYMid meet">
<metadata>
Created by potrace 1.14, written by Peter Selinger 2001-2017
</metadata>
<g transform="translate(0.000000,512.000000) scale(0.100000,-0.100000)"
fill="#000000" stroke="none">
<path d="M2250 4336 c-678 -78 -1168 -365 -1409 -825 -238 -456 -223 -1094 36
-1520 132 -218 312 -386 552 -516 l112 -60 -7 -45 c-20 -149 -97 -325 -210
-485 -41 -57 -74 -107 -74 -110 0 -9 304 -5 395 6 302 37 546 151 784 367 l76
69 200 6 c589 17 1047 186 1361 501 157 157 260 320 328 520 104 303 112 693
21 1011 -32 111 -115 286 -185 391 -73 109 -262 294 -380 372 -233 154 -518
256 -862 308 -143 21 -586 27 -738 10z m725 -220 c390 -63 680 -191 894 -392
236 -222 355 -493 377 -854 7 -129 -6 -291 -36 -416 -90 -383 -313 -663 -665
-834 -265 -128 -528 -182 -963 -196 l-212 -7 -50 -63 c-89 -111 -203 -198
-353 -269 -91 -43 -264 -95 -317 -95 l-27 0 38 113 c40 117 73 266 84 378 l7
65 -79 33 c-284 118 -521 319 -650 549 -176 314 -209 769 -81 1130 101 289
300 514 582 663 214 113 429 172 766 213 89 10 589 -3 685 -18z"/>
</g>
</svg>
